<svg width="69" height="60" viewBox="0 0 69 60" fill="none" xmlns="http://www.w3.org/2000/svg">
<path d="M55.38 0C49.7981 0 45.24 4.55813 45.24 10.14C45.24 13.0955 46.3795 15.4294 47.8542 17.0442C49.3289 18.6652 51.0839 19.628 52.4672 20.1703C55.6664 21.4317 57.9637 22.4189 59.3044 23.2537C59.3897 23.3086 59.4323 23.3512 59.5055 23.4H57.9881C57.6408 23.4 57.3056 23.5158 57.0375 23.723C53.9297 26.1056 47.5678 27.9886 40.2188 28.0617C38.3419 25.1123 35.8739 22.6383 33.1012 21.322C33.8508 20.3897 34.32 19.2197 34.32 17.94C34.32 14.9419 31.8581 12.48 28.86 12.48C25.8619 12.48 23.4 14.9419 23.4 17.94C23.4 19.2197 23.8692 20.3836 24.6187 21.322C21.6572 22.7175 19.0552 25.4292 17.1356 28.6406C15.8011 29.1159 14.6006 29.8837 13.6256 30.877C13.5952 30.7369 13.5952 30.6089 13.5586 30.4748C13.193 28.86 12.5836 27.172 11.4258 25.7887C10.268 24.4055 8.45203 23.4 6.24 23.4C3.47953 23.4 1.6575 25.0636 0.865313 26.5687C0.0670316 28.08 0 29.5547 0 29.5547V29.64C0 32.303 0.889688 34.4723 2.20594 36.1603C3.52828 37.8483 5.22234 39.0853 6.89812 40.2736C8.95781 41.7239 9.96938 43.0645 10.2253 43.5581C10.0364 43.613 9.96937 43.68 9.36 43.68C8.79937 43.6739 8.27531 43.9664 7.98891 44.4539C7.70859 44.9414 7.70859 45.5386 7.98891 46.0261C8.27531 46.5136 8.79937 46.8061 9.36 46.8C10.6336 46.8 11.6817 46.6598 12.5775 45.9712C13.1747 45.5142 13.4794 44.7464 13.5464 43.9969C14.3752 44.9902 15.3136 45.8494 16.2581 46.5136C16.2642 46.5197 16.2642 46.5197 16.2642 46.5136C18.8845 48.36 22.0472 49.3837 25.9289 49.725C25.4231 50.3039 25.1002 51.023 25.0087 51.8212C23.5402 52.0711 22.1873 52.4611 21.0356 52.9912C19.9814 53.4787 19.0734 54.0759 18.3666 54.8437C17.6597 55.6116 17.16 56.617 17.16 57.72V59.28H40.56V57.72C40.56 56.617 40.0603 55.6116 39.3534 54.8437C38.6466 54.0759 37.7386 53.4787 36.6844 52.9912C35.5327 52.4611 34.1798 52.0711 32.7113 51.8212C32.6198 51.0352 32.303 50.3222 31.8094 49.7494C39.7678 48.9389 45.368 44.9658 52.5159 38.6039C57.7078 33.9848 63.3262 28.1105 67.6467 26.4164C68.3475 26.1422 68.7558 25.4048 68.6156 24.6675C68.4755 23.9302 67.8295 23.4 67.08 23.4H66.9337C66.495 20.7005 64.8802 17.5622 61.0533 15.7097C60.8095 15.5878 60.5962 15.4781 60.3525 15.3562C61.7906 15.0942 63.113 14.4787 64.0148 13.4062L64.0697 13.3392L64.1184 13.2661C64.8558 12.1631 65.3067 10.8834 65.4591 9.54891C65.52 9.08578 65.52 8.93344 65.52 8.58C65.52 3.85734 61.6627 0 56.94 0H55.38ZM55.38 3.12H56.94C59.9869 3.12 62.4 5.53312 62.4 8.58C62.4 8.52516 62.3269 9.42094 62.3695 9.14062V9.165L62.3634 9.18937C62.272 10.0181 61.9734 10.7737 61.5652 11.4258C61.0106 12.0473 60.2062 12.48 59.28 12.48C58.2502 12.48 57.3666 11.9925 56.7877 11.2369C56.3977 10.7006 56.16 10.0669 56.16 9.36V7.8H54.6C52.8937 7.8 51.48 9.21375 51.48 10.92C51.48 11.1333 51.5044 11.2734 51.5227 11.3892C51.6567 12.7603 52.4184 13.8816 53.3386 14.7469C54.2648 15.6122 55.3861 16.3008 56.5805 16.9589H56.5866C57.5859 17.4952 58.6462 18.0009 59.6822 18.5128L59.6883 18.5189H59.6944C62.3878 19.823 63.2287 21.6694 63.5761 23.4H63.4237C63.2836 23.0831 63.2958 22.7053 63.0825 22.4311C62.5402 21.712 61.8211 21.1453 60.9619 20.603C59.2312 19.5305 56.8486 18.5433 53.6128 17.2697C52.5708 16.8614 51.2058 16.0936 50.1637 14.948C49.1217 13.8023 48.36 12.3216 48.36 10.14C48.36 6.24 51.48 3.12 55.38 3.12ZM28.86 15.6C30.1702 15.6 31.2 16.6298 31.2 17.94C31.2 19.2502 30.1702 20.28 28.86 20.28C27.5498 20.28 26.52 19.2502 26.52 17.94C26.52 16.6298 27.5498 15.6 28.86 15.6ZM28.86 23.4C31.1025 23.4 33.7289 25.4109 35.9958 28.08H21.7425C24.0094 25.4231 26.6175 23.4 28.86 23.4ZM6.24 26.52C7.59891 26.52 8.35453 26.9831 9.03094 27.7936C9.71344 28.6041 10.2192 29.8472 10.5178 31.1695C11.1211 33.802 10.9261 36.5625 10.9261 36.5625C10.9078 36.7148 10.9139 36.8794 10.9444 37.0317C10.9383 37.1719 10.92 37.3059 10.92 37.44C10.92 38.2444 11.0602 39.0244 11.2734 39.78C10.5422 39.1036 9.70125 38.4333 8.70187 37.7264C7.06266 36.5747 5.63672 35.4717 4.66781 34.2347C3.705 33.0098 3.13828 31.6692 3.13219 29.6887C3.13219 29.6522 3.19312 28.8417 3.61969 28.0312C4.05844 27.1964 4.5825 26.52 6.24 26.52ZM58.3842 26.52H61.4311C57.6164 29.3475 53.9236 33.1805 50.4441 36.2761C42.8452 43.0402 37.9031 46.4831 29.7436 46.7756C29.7436 46.7695 29.7436 46.7695 29.7375 46.7756C29.4084 46.7878 29.122 46.8 28.86 46.8C28.9331 46.8 28.9027 46.8 28.7686 46.8C28.7686 46.7939 28.7686 46.7939 28.7625 46.8C28.732 46.7939 28.7016 46.7939 28.665 46.7939C23.8997 46.7512 20.6822 45.8067 18.0619 43.9664C16.1423 42.6136 14.04 39.6033 14.04 37.44C14.04 34.7587 15.7158 32.498 18.0802 31.6144L18.5677 31.4742C18.8419 31.395 19.1039 31.3402 19.3598 31.2914C19.6645 31.2487 19.9631 31.2 20.28 31.2H42.0956L42.0652 31.133C48.8231 30.8283 54.6366 29.1647 58.3842 26.52ZM28.86 54.6C29.5242 54.6 30.1702 54.6366 30.7978 54.6975C32.6137 54.8742 34.2164 55.2947 35.3742 55.8248C35.6058 55.9345 35.6789 56.0503 35.8739 56.16H21.8461C22.0411 56.0503 22.1142 55.9345 22.3458 55.8248C23.5036 55.2947 25.1062 54.8742 26.9222 54.6975C27.5498 54.6366 28.1958 54.6 28.86 54.6Z" fill="black"/>
<path d="M58.3848 26.5216H61.4317C57.617 29.3491 53.9242 33.182 50.4447 36.2777C42.8458 43.0417 37.9038 46.4847 29.7442 46.7772C29.7442 46.7711 29.7442 46.7711 29.7381 46.7772C29.4091 46.7894 29.1227 46.8016 28.8606 46.8016H28.7692C28.7692 46.7955 28.7692 46.7955 28.7631 46.8016C28.7327 46.7955 28.7022 46.7955 28.6656 46.7955C23.9003 46.7528 20.6828 45.8083 18.0625 43.968C16.143 42.6152 14.0406 39.6048 14.0406 37.4416C14.0406 34.7603 15.7164 32.4995 18.0808 31.6159L18.5683 31.4758C18.8425 31.3966 19.1045 31.3417 19.3605 31.293C19.6652 31.2503 19.9637 31.2016 20.2806 31.2016H42.0962L42.0658 31.1345C48.8237 30.8298 54.6372 29.1663 58.3848 26.5216Z" fill="white"/>
<path d="M28.8606 23.4016C31.1031 23.4016 33.7295 25.4125 35.9964 28.0816H21.7431C24.01 25.4247 26.6181 23.4016 28.8606 23.4016Z" fill="white"/>
<path d="M28.8606 15.6016C30.1708 15.6016 31.2006 16.6314 31.2006 17.9416C31.2006 19.2517 30.1708 20.2816 28.8606 20.2816C27.5505 20.2816 26.5206 19.2517 26.5206 17.9416C26.5206 16.6314 27.5505 15.6016 28.8606 15.6016Z" fill="white"/>
<path d="M6.24062 26.5216C7.59953 26.5216 8.35516 26.9847 9.03156 27.7952C9.71406 28.6056 10.2198 29.8487 10.5184 31.1711C11.1217 33.8036 10.9267 36.5641 10.9267 36.5641C10.9084 36.7164 10.9145 36.8809 10.945 37.0333C10.9389 37.1734 10.9206 37.3075 10.9206 37.4416C10.9206 38.2459 11.0608 39.0259 11.2741 39.7816C10.5428 39.1052 9.70187 38.4348 8.7025 37.728C7.06328 36.5762 5.63734 35.4733 4.66844 34.2362C3.70562 33.0114 3.13891 31.6708 3.13281 29.6903C3.13281 29.6538 3.19375 28.8433 3.62031 28.0328C4.05906 27.198 4.58312 26.5216 6.24062 26.5216Z" fill="white"/>
<path d="M28.8606 54.6016C29.5248 54.6016 30.1708 54.6381 30.7984 54.6991C32.6144 54.8758 34.217 55.2962 35.3748 55.8264C35.6064 55.9361 35.6795 56.0519 35.8745 56.1616H21.8467C22.0417 56.0519 22.1148 55.9361 22.3464 55.8264C23.5042 55.2962 25.1069 54.8758 26.9228 54.6991C27.5505 54.6381 28.1964 54.6016 28.8606 54.6016Z" fill="white"/>
<path d="M55.3833 3.12109H56.9433C59.9902 3.12109 62.4033 5.53422 62.4033 8.58109C62.4033 8.52625 62.3301 9.42203 62.3728 9.14172V9.16609L62.3667 9.19047C62.2753 10.0192 61.9767 10.7748 61.5684 11.4269C61.0139 12.0484 60.2095 12.4811 59.2833 12.4811C58.2534 12.4811 57.3698 11.9936 56.7909 11.238C56.4009 10.7017 56.1633 10.068 56.1633 9.36109V7.80109H54.6033C52.897 7.80109 51.4833 9.21484 51.4833 10.9211C51.4833 11.1344 51.5077 11.2745 51.5259 11.3903C51.66 12.7614 52.4217 13.8827 53.3419 14.748C54.2681 15.6133 55.3894 16.3019 56.5837 16.96H56.5898C57.5892 17.4963 58.6495 18.002 59.6855 18.5139L59.6916 18.52H59.6977C62.3911 19.8241 63.232 21.6705 63.5794 23.4011H63.427C63.2869 23.0842 63.2991 22.7064 63.0858 22.4322C62.5434 21.7131 61.8244 21.1464 60.9652 20.6041C59.2345 19.5316 56.8519 18.5444 53.6161 17.2708C52.5741 16.8625 51.2091 16.0947 50.167 14.9491C49.125 13.8034 48.3633 12.3227 48.3633 10.1411C48.3633 6.24109 51.4833 3.12109 55.3833 3.12109Z" fill="#F8B2FA"/>
</svg>
