<svg width="200" height="44" viewBox="0 0 200 44" fill="none" xmlns="http://www.w3.org/2000/svg">
<path d="M2 42L16.6729 31.2199C20.9003 28.114 26.6552 28.114 30.8827 31.2199L38.4506 36.7801C42.6781 39.886 48.433 39.886 52.6605 36.7801L60.2284 31.2199C64.4559 28.114 70.2108 28.114 74.4383 31.2199L82.0062 36.7801C86.2337 39.886 91.9886 39.886 96.216 36.7801L103.784 31.2199C108.011 28.114 113.766 28.114 117.994 31.2199L125.562 36.7801C129.789 39.886 135.544 39.886 139.772 36.7801L147.34 31.2199C151.567 28.114 157.322 28.114 161.549 31.2199L169.117 36.7801C173.345 39.886 179.1 39.886 183.327 36.7801L198 26" stroke="white" stroke-width="4"/>
<path d="M2 34L16.6729 23.2199C20.9003 20.114 26.6552 20.114 30.8827 23.2199L38.4506 28.7801C42.6781 31.886 48.433 31.886 52.6605 28.7801L60.2284 23.2199C64.4559 20.114 70.2108 20.114 74.4383 23.2199L82.0062 28.7801C86.2337 31.886 91.9886 31.886 96.216 28.7801L103.784 23.2199C108.011 20.114 113.766 20.114 117.994 23.2199L125.562 28.7801C129.789 31.886 135.544 31.886 139.772 28.7801L147.34 23.2199C151.567 20.114 157.322 20.114 161.549 23.2199L169.117 28.7801C173.345 31.886 179.1 31.886 183.327 28.7801L198 18" stroke="white" stroke-width="4"/>
<path d="M2 26L16.6729 15.2199C20.9003 12.114 26.6552 12.114 30.8827 15.2199L38.4506 20.7801C42.6781 23.886 48.433 23.886 52.6605 20.7801L60.2284 15.2199C64.4559 12.114 70.2108 12.114 74.4383 15.2199L82.0062 20.7801C86.2337 23.886 91.9886 23.886 96.216 20.7801L103.784 15.2199C108.011 12.114 113.766 12.114 117.994 15.2199L125.562 20.7801C129.789 23.886 135.544 23.886 139.772 20.7801L147.34 15.2199C151.567 12.114 157.322 12.114 161.549 15.2199L169.117 20.7801C173.345 23.886 179.1 23.886 183.327 20.7801L198 10" stroke="white" stroke-width="4"/>
<path d="M2 18L16.6729 7.21993C20.9003 4.11404 26.6552 4.11405 30.8827 7.21994L38.4506 12.7801C42.6781 15.886 48.433 15.886 52.6605 12.7801L60.2284 7.21993C64.4559 4.11404 70.2108 4.11405 74.4383 7.21994L82.0062 12.7801C86.2337 15.886 91.9886 15.886 96.216 12.7801L103.784 7.21993C108.011 4.11404 113.766 4.11405 117.994 7.21994L125.562 12.7801C129.789 15.886 135.544 15.886 139.772 12.7801L147.34 7.21993C151.567 4.11404 157.322 4.11405 161.549 7.21994L169.117 12.7801C173.345 15.886 179.1 15.886 183.327 12.7801L198 2" stroke="white" stroke-width="4"/>
</svg>
