<svg width="56" height="49" viewBox="0 0 56 49" fill="none" xmlns="http://www.w3.org/2000/svg">
<path d="M45.1798 0C40.626 0 36.9075 3.71859 36.9075 8.27236C36.9075 10.6835 37.8371 12.5875 39.0402 13.9049C40.2432 15.2273 41.675 16.0128 42.8035 16.4552C45.4135 17.4843 47.2877 18.2897 48.3814 18.9708C48.451 19.0155 48.4858 19.0503 48.5454 19.0901H47.3076C47.0242 19.0901 46.7508 19.1845 46.532 19.3535C43.9966 21.2974 38.8065 22.8335 32.811 22.8932C31.2799 20.487 29.2665 18.4686 27.0045 17.3948C27.616 16.6342 27.9988 15.6797 27.9988 14.6357C27.9988 12.1898 25.9903 10.1814 23.5444 10.1814C21.0985 10.1814 19.0901 12.1898 19.0901 14.6357C19.0901 15.6797 19.4729 16.6292 20.0843 17.3948C17.6682 18.5333 15.5455 20.7455 13.9795 23.3654C12.8908 23.7532 11.9114 24.3796 11.116 25.1899C11.0911 25.0756 11.0911 24.9712 11.0613 24.8618C10.763 23.5444 10.2659 22.1673 9.32132 21.0388C8.37676 19.9103 6.89529 19.0901 5.09068 19.0901C2.83865 19.0901 1.35221 20.4472 0.705935 21.6752C0.0546854 22.9081 0 24.1111 0 24.1111V24.1807C0 26.3532 0.725821 28.123 1.79964 29.5001C2.87842 30.8772 4.26046 31.8864 5.62759 32.8558C7.30791 34.039 8.13316 35.1327 8.34196 35.5354C8.18785 35.5801 8.13316 35.6348 7.63602 35.6348C7.17866 35.6298 6.75112 35.8684 6.51747 36.2661C6.28878 36.6639 6.28878 37.1511 6.51747 37.5488C6.75112 37.9465 7.17866 38.1851 7.63602 38.1801C8.67504 38.1801 9.53012 38.0658 10.2609 37.504C10.7481 37.1312 10.9967 36.5048 11.0514 35.8933C11.7275 36.7036 12.4931 37.4046 13.2636 37.9465C13.2686 37.9514 13.2686 37.9514 13.2686 37.9465C15.4063 39.4528 17.9864 40.288 21.1532 40.5664C20.7406 41.0387 20.4771 41.6253 20.4025 42.2765C19.2044 42.4804 18.1008 42.7985 17.1612 43.231C16.3011 43.6287 15.5604 44.1159 14.9837 44.7423C14.407 45.3687 13.9994 46.189 13.9994 47.0888V48.3615H33.0894V47.0888C33.0894 46.189 32.6818 45.3687 32.1051 44.7423C31.5284 44.1159 30.7877 43.6287 29.9276 43.231C28.9881 42.7985 27.8844 42.4804 26.6863 42.2765C26.6117 41.6352 26.3532 41.0536 25.9506 40.5863C32.4432 39.9251 37.0118 36.6837 42.8433 31.4936C47.0789 27.7253 51.6625 22.9329 55.1872 21.5509C55.7589 21.3272 56.092 20.7256 55.9776 20.1241C55.8633 19.5226 55.3363 19.0901 54.7248 19.0901H54.6055C54.2476 16.8877 52.9302 14.3275 49.8082 12.8162C49.6093 12.7168 49.4353 12.6273 49.2364 12.5279C50.4097 12.3141 51.4885 11.812 52.2242 10.937L52.269 10.8823L52.3088 10.8227C52.9103 9.92286 53.2782 8.87887 53.4025 7.79014C53.4522 7.41231 53.4522 7.28803 53.4522 6.99969C53.4522 3.14688 50.3053 0 46.4525 0H45.1798ZM45.1798 2.54534H46.4525C48.9382 2.54534 50.9068 4.514 50.9068 6.99969C50.9068 6.95495 50.8472 7.68574 50.882 7.45706V7.47694L50.877 7.49683C50.8024 8.17293 50.5588 8.78938 50.2258 9.32132C49.7734 9.8284 49.1171 10.1814 48.3615 10.1814C47.5213 10.1814 46.8005 9.78366 46.3282 9.16721C46.01 8.72973 45.8161 8.2127 45.8161 7.63603V6.36335H44.5435C43.1515 6.36335 41.9981 7.51671 41.9981 8.9087C41.9981 9.08269 42.018 9.19704 42.0329 9.29149C42.1423 10.4101 42.7637 11.3248 43.5144 12.0307C44.2701 12.7367 45.1848 13.2984 46.1592 13.8353H46.1641C46.9794 14.2728 47.8445 14.6854 48.6896 15.103L48.6946 15.108H48.6995C50.8969 16.1719 51.5829 17.6782 51.8663 19.0901H51.742C51.6277 18.8316 51.6376 18.5233 51.4636 18.2996C51.0212 17.713 50.4345 17.2507 49.7336 16.8082C48.3217 15.9332 46.3779 15.1279 43.7381 14.0889C42.888 13.7558 41.7744 13.1294 40.9243 12.1948C40.0742 11.2602 39.4528 10.0521 39.4528 8.27236C39.4528 5.09068 41.9981 2.54534 45.1798 2.54534ZM23.5444 12.7267C24.6133 12.7267 25.4534 13.5669 25.4534 14.6357C25.4534 15.7046 24.6133 16.5447 23.5444 16.5447C22.4756 16.5447 21.6354 15.7046 21.6354 14.6357C21.6354 13.5669 22.4756 12.7267 23.5444 12.7267ZM23.5444 19.0901C25.3739 19.0901 27.5165 20.7306 29.3659 22.9081H17.7378C19.5872 20.7406 21.7149 19.0901 23.5444 19.0901ZM5.09068 21.6354C6.1993 21.6354 6.81575 22.0132 7.36757 22.6744C7.92437 23.3356 8.33699 24.3498 8.58059 25.4286C9.07275 27.5762 8.91367 29.8282 8.91367 29.8282C8.89875 29.9525 8.90372 30.0867 8.92858 30.211C8.92361 30.3254 8.9087 30.4347 8.9087 30.5441C8.9087 31.2003 9.02304 31.8367 9.19704 32.4531C8.60047 31.9013 7.91442 31.3544 7.09912 30.7778C5.76182 29.8382 4.59852 28.9383 3.80807 27.9292C3.02259 26.9299 2.56026 25.8362 2.55528 24.2205C2.55528 24.1907 2.605 23.5295 2.95299 22.8683C3.31093 22.1872 3.73847 21.6354 5.09068 21.6354ZM47.6307 21.6354H50.1164C47.0043 23.9421 43.9917 27.0691 41.153 29.5946C34.9537 35.1128 30.9219 37.9216 24.2653 38.1602C24.2653 38.1553 24.2653 38.1553 24.2603 38.1602C23.9918 38.1702 23.7582 38.1801 23.5444 38.1801C23.6041 38.1801 23.5792 38.1801 23.4698 38.1801C23.4698 38.1752 23.4698 38.1752 23.4649 38.1801C23.44 38.1752 23.4152 38.1752 23.3853 38.1752C19.4977 38.1404 16.8728 37.3698 14.7351 35.8684C13.1692 34.7648 11.454 32.3089 11.454 30.5441C11.454 28.3567 12.8212 26.5123 14.7501 25.7915L15.1478 25.6771C15.3715 25.6125 15.5852 25.5678 15.794 25.528C16.0426 25.4932 16.2862 25.4534 16.5447 25.4534H34.3422L34.3174 25.3987C39.8306 25.1502 44.5733 23.793 47.6307 21.6354ZM23.5444 44.5435C24.0863 44.5435 24.6133 44.5733 25.1253 44.623C26.6068 44.7672 27.9142 45.1102 28.8588 45.5427C29.0477 45.6322 29.1074 45.7267 29.2665 45.8162H17.8224C17.9814 45.7267 18.0411 45.6322 18.23 45.5427C19.1746 45.1102 20.482 44.7672 21.9635 44.623C22.4756 44.5733 23.0025 44.5435 23.5444 44.5435Z" fill="black"/>
<path d="M47.6301 21.6353H50.1158C47.0037 23.942 43.9911 27.069 41.1524 29.5944C34.9531 35.1126 30.9213 37.9215 24.2647 38.1601C24.2647 38.1551 24.2647 38.1551 24.2597 38.1601C23.9912 38.17 23.7576 38.18 23.5438 38.18H23.4692C23.4692 38.175 23.4692 38.175 23.4643 38.18C23.4394 38.175 23.4146 38.175 23.3847 38.175C19.4971 38.1402 16.8722 37.3696 14.7345 35.8683C13.1686 34.7646 11.4534 32.3088 11.4534 30.544C11.4534 28.3566 12.8206 26.5122 14.7495 25.7913L15.1472 25.677C15.3709 25.6124 15.5846 25.5676 15.7934 25.5278C16.042 25.493 16.2856 25.4533 16.5441 25.4533H34.3416L34.3168 25.3986C39.83 25.15 44.5727 23.7928 47.6301 21.6353Z" fill="white"/>
<path d="M23.5438 19.0899C25.3733 19.0899 27.5159 20.7305 29.3653 22.9079H17.7373C19.5866 20.7404 21.7143 19.0899 23.5438 19.0899Z" fill="white"/>
<path d="M23.5438 12.7266C24.6127 12.7266 25.4528 13.5667 25.4528 14.6356C25.4528 15.7044 24.6127 16.5446 23.5438 16.5446C22.475 16.5446 21.6348 15.7044 21.6348 14.6356C21.6348 13.5667 22.475 12.7266 23.5438 12.7266Z" fill="white"/>
<path d="M5.09009 21.6353C6.1987 21.6353 6.81515 22.0131 7.36697 22.6743C7.92377 23.3355 8.33639 24.3496 8.57999 25.4284C9.07215 27.576 8.91307 29.8281 8.91307 29.8281C8.89816 29.9524 8.90313 30.0866 8.92798 30.2109C8.92301 30.3252 8.9081 30.4346 8.9081 30.544C8.9081 31.2002 9.02244 31.8365 9.19644 32.453C8.59987 31.9011 7.91382 31.3543 7.09852 30.7776C5.76122 29.838 4.59792 28.9382 3.80747 27.929C3.022 26.9298 2.55966 25.8361 2.55469 24.2204C2.55469 24.1905 2.6044 23.5294 2.9524 22.8682C3.31034 22.1871 3.73787 21.6353 5.09009 21.6353Z" fill="white"/>
<path d="M23.5438 44.5433C24.0857 44.5433 24.6127 44.5732 25.1247 44.6229C26.6062 44.767 27.9136 45.1101 28.8582 45.5426C29.0471 45.6321 29.1068 45.7265 29.2659 45.816H17.8218C17.9808 45.7265 18.0405 45.6321 18.2294 45.5426C19.174 45.1101 20.4814 44.767 21.9629 44.6229C22.475 44.5732 23.0019 44.5433 23.5438 44.5433Z" fill="white"/>
<path d="M45.1801 2.54688H46.4528C48.9385 2.54688 50.9072 4.51554 50.9072 7.00122C50.9072 6.95648 50.8475 7.68727 50.8823 7.45859V7.47848L50.8773 7.49836C50.8028 8.17447 50.5592 8.79092 50.2261 9.32285C49.7737 9.82993 49.1175 10.1829 48.3618 10.1829C47.5217 10.1829 46.8008 9.78519 46.3285 9.16874C46.0104 8.73126 45.8165 8.21424 45.8165 7.63756V6.36489H44.5438C43.1518 6.36489 41.9985 7.51825 41.9985 8.91023C41.9985 9.08423 42.0184 9.19857 42.0333 9.29303C42.1426 10.4116 42.7641 11.3263 43.5147 12.0323C44.2704 12.7382 45.1851 13.3 46.1595 13.8369H46.1645C46.9798 14.2743 47.8448 14.687 48.6899 15.1046L48.6949 15.1095H48.6999C50.8972 16.1734 51.5833 17.6797 51.8666 19.0916H51.7423C51.628 18.8331 51.6379 18.5249 51.464 18.3011C51.0215 17.7145 50.4349 17.2522 49.7339 16.8097C48.322 15.9348 46.3782 15.1294 43.7384 14.0904C42.8883 13.7573 41.7748 13.1309 40.9246 12.1963C40.0745 11.2617 39.4531 10.0536 39.4531 8.27389C39.4531 5.09222 41.9985 2.54688 45.1801 2.54688Z" fill="#F8B2FA"/>
</svg>
