<svg width="160" height="32" viewBox="0 0 160 32" fill="none" xmlns="http://www.w3.org/2000/svg">
<mask id="mask0" mask-type="alpha" maskUnits="userSpaceOnUse" x="0" y="0" width="32" height="32">
<rect width="32" height="32" fill="#C4C4C4"/>
</mask>
<g mask="url(#mask0)">
<path d="M-32 32.5013L-24 24.5846C-19.5682 20.199 -12.4318 20.199 -8 24.5846V24.5846C-3.56823 28.9702 3.56823 28.9702 8 24.5846V24.5846C12.4318 20.199 19.5682 20.199 24 24.5846V24.5846C28.4318 28.9702 35.5682 28.9702 40 24.5846V24.5846C44.4318 20.199 51.5682 20.199 56 24.5846V24.5846C60.4318 28.9702 67.5682 28.9702 72 24.5846V24.5846C76.4318 20.199 83.5682 20.199 88 24.5846V24.5846C92.4318 28.9702 99.5682 28.9702 104 24.5846V24.5846C108.432 20.199 115.568 20.199 120 24.5846V24.5846C124.432 28.9702 131.568 28.9702 136 24.5846L144 16.668" stroke="#3DB3E9" stroke-width="4"/>
<path d="M-32 23.3294L-24 15.4128C-19.5682 11.0272 -12.4318 11.0272 -8 15.4128V15.4128C-3.56823 19.7984 3.56823 19.7984 8 15.4128V15.4128C12.4318 11.0272 19.5682 11.0272 24 15.4128V15.4128C28.4318 19.7984 35.5682 19.7984 40 15.4128V15.4128C44.4318 11.0272 51.5682 11.0272 56 15.4128V15.4128C60.4318 19.7984 67.5682 19.7984 72 15.4128V15.4128C76.4318 11.0272 83.5682 11.0272 88 15.4128V15.4128C92.4318 19.7984 99.5682 19.7984 104 15.4128V15.4128C108.432 11.0272 115.568 11.0272 120 15.4128V15.4128C124.432 19.7984 131.568 19.7984 136 15.4128L144 7.49609" stroke="#3DB3E9" stroke-width="4"/>
<path d="M-32 14.1654L-24 6.2487C-19.5682 1.8631 -12.4318 1.8631 -8 6.2487V6.2487C-3.56823 10.6343 3.56823 10.6343 8 6.2487V6.2487C12.4318 1.8631 19.5682 1.8631 24 6.2487V6.2487C28.4318 10.6343 35.5682 10.6343 40 6.2487V6.2487C44.4318 1.8631 51.5682 1.8631 56 6.2487V6.2487C60.4318 10.6343 67.5682 10.6343 72 6.2487V6.2487C76.4318 1.8631 83.5682 1.8631 88 6.2487V6.2487C92.4318 10.6343 99.5682 10.6343 104 6.2487V6.2487C108.432 1.8631 115.568 1.8631 120 6.2487V6.2487C124.432 10.6343 131.568 10.6343 136 6.2487L144 -1.66797" stroke="#3DB3E9" stroke-width="4"/>
</g>
<mask id="mask1" mask-type="alpha" maskUnits="userSpaceOnUse" x="64" y="0" width="32" height="32">
<rect x="64" width="32" height="32" fill="#C4C4C4"/>
</mask>
<g mask="url(#mask1)">
<path d="M32 32.5013L40 24.5846C44.4318 20.199 51.5682 20.199 56 24.5846V24.5846C60.4318 28.9702 67.5682 28.9702 72 24.5846V24.5846C76.4318 20.199 83.5682 20.199 88 24.5846V24.5846C92.4318 28.9702 99.5682 28.9702 104 24.5846V24.5846C108.432 20.199 115.568 20.199 120 24.5846V24.5846C124.432 28.9702 131.568 28.9702 136 24.5846V24.5846C140.432 20.199 147.568 20.199 152 24.5846V24.5846C156.432 28.9702 163.568 28.9702 168 24.5846V24.5846C172.432 20.199 179.568 20.199 184 24.5846V24.5846C188.432 28.9702 195.568 28.9702 200 24.5846L208 16.668" stroke="#3DB3E9" stroke-width="4"/>
<path d="M32 23.3294L40 15.4128C44.4318 11.0272 51.5682 11.0272 56 15.4128V15.4128C60.4318 19.7984 67.5682 19.7984 72 15.4128V15.4128C76.4318 11.0272 83.5682 11.0272 88 15.4128V15.4128C92.4318 19.7984 99.5682 19.7984 104 15.4128V15.4128C108.432 11.0272 115.568 11.0272 120 15.4128V15.4128C124.432 19.7984 131.568 19.7984 136 15.4128V15.4128C140.432 11.0272 147.568 11.0272 152 15.4128V15.4128C156.432 19.7984 163.568 19.7984 168 15.4128V15.4128C172.432 11.0272 179.568 11.0272 184 15.4128V15.4128C188.432 19.7984 195.568 19.7984 200 15.4128L208 7.49609" stroke="#3DB3E9" stroke-width="4"/>
<path d="M32 14.1654L40 6.2487C44.4318 1.8631 51.5682 1.8631 56 6.2487V6.2487C60.4318 10.6343 67.5682 10.6343 72 6.2487V6.2487C76.4318 1.8631 83.5682 1.8631 88 6.2487V6.2487C92.4318 10.6343 99.5682 10.6343 104 6.2487V6.2487C108.432 1.8631 115.568 1.8631 120 6.2487V6.2487C124.432 10.6343 131.568 10.6343 136 6.2487V6.2487C140.432 1.8631 147.568 1.8631 152 6.2487V6.2487C156.432 10.6343 163.568 10.6343 168 6.2487V6.2487C172.432 1.8631 179.568 1.8631 184 6.2487V6.2487C188.432 10.6343 195.568 10.6343 200 6.2487L208 -1.66797" stroke="#3DB3E9" stroke-width="4"/>
</g>
<mask id="mask2" mask-type="alpha" maskUnits="userSpaceOnUse" x="128" y="0" width="32" height="32">
<rect x="128" width="32" height="32" fill="#C4C4C4"/>
</mask>
<g mask="url(#mask2)">
<path d="M96 32.5013L104 24.5846C108.432 20.199 115.568 20.199 120 24.5846V24.5846C124.432 28.9702 131.568 28.9702 136 24.5846V24.5846C140.432 20.199 147.568 20.199 152 24.5846V24.5846C156.432 28.9702 163.568 28.9702 168 24.5846V24.5846C172.432 20.199 179.568 20.199 184 24.5846V24.5846C188.432 28.9702 195.568 28.9702 200 24.5846V24.5846C204.432 20.199 211.568 20.199 216 24.5846V24.5846C220.432 28.9702 227.568 28.9702 232 24.5846V24.5846C236.432 20.199 243.568 20.199 248 24.5846V24.5846C252.432 28.9702 259.568 28.9702 264 24.5846L272 16.668" stroke="#3DB3E9" stroke-width="4"/>
<path d="M96 23.3294L104 15.4128C108.432 11.0272 115.568 11.0272 120 15.4128V15.4128C124.432 19.7984 131.568 19.7984 136 15.4128V15.4128C140.432 11.0272 147.568 11.0272 152 15.4128V15.4128C156.432 19.7984 163.568 19.7984 168 15.4128V15.4128C172.432 11.0272 179.568 11.0272 184 15.4128V15.4128C188.432 19.7984 195.568 19.7984 200 15.4128V15.4128C204.432 11.0272 211.568 11.0272 216 15.4128V15.4128C220.432 19.7984 227.568 19.7984 232 15.4128V15.4128C236.432 11.0272 243.568 11.0272 248 15.4128V15.4128C252.432 19.7984 259.568 19.7984 264 15.4128L272 7.49609" stroke="#3DB3E9" stroke-width="4"/>
<path d="M96 14.1654L104 6.2487C108.432 1.8631 115.568 1.8631 120 6.2487V6.2487C124.432 10.6343 131.568 10.6343 136 6.2487V6.2487C140.432 1.8631 147.568 1.8631 152 6.2487V6.2487C156.432 10.6343 163.568 10.6343 168 6.2487V6.2487C172.432 1.8631 179.568 1.8631 184 6.2487V6.2487C188.432 10.6343 195.568 10.6343 200 6.2487V6.2487C204.432 1.8631 211.568 1.8631 216 6.2487V6.2487C220.432 10.6343 227.568 10.6343 232 6.2487V6.2487C236.432 1.8631 243.568 1.8631 248 6.2487V6.2487C252.432 10.6343 259.568 10.6343 264 6.2487L272 -1.66797" stroke="#3DB3E9" stroke-width="4"/>
</g>
<mask id="mask3" mask-type="alpha" maskUnits="userSpaceOnUse" x="32" y="0" width="32" height="32">
<rect x="32" width="32" height="32" fill="#C4C4C4"/>
</mask>
<g mask="url(#mask3)">
<path d="M0 32.5013L8 24.5846C12.4318 20.199 19.5682 20.199 24 24.5846V24.5846C28.4318 28.9702 35.5682 28.9702 40 24.5846V24.5846C44.4318 20.199 51.5682 20.199 56 24.5846V24.5846C60.4318 28.9702 67.5682 28.9702 72 24.5846V24.5846C76.4318 20.199 83.5682 20.199 88 24.5846V24.5846C92.4318 28.9702 99.5682 28.9702 104 24.5846V24.5846C108.432 20.199 115.568 20.199 120 24.5846V24.5846C124.432 28.9702 131.568 28.9702 136 24.5846V24.5846C140.432 20.199 147.568 20.199 152 24.5846V24.5846C156.432 28.9702 163.568 28.9702 168 24.5846L176 16.668" stroke="#3DB3E9" stroke-width="4"/>
<path d="M0 23.3294L8 15.4128C12.4318 11.0272 19.5682 11.0272 24 15.4128V15.4128C28.4318 19.7984 35.5682 19.7984 40 15.4128V15.4128C44.4318 11.0272 51.5682 11.0272 56 15.4128V15.4128C60.4318 19.7984 67.5682 19.7984 72 15.4128V15.4128C76.4318 11.0272 83.5682 11.0272 88 15.4128V15.4128C92.4318 19.7984 99.5682 19.7984 104 15.4128V15.4128C108.432 11.0272 115.568 11.0272 120 15.4128V15.4128C124.432 19.7984 131.568 19.7984 136 15.4128V15.4128C140.432 11.0272 147.568 11.0272 152 15.4128V15.4128C156.432 19.7984 163.568 19.7984 168 15.4128L176 7.49609" stroke="#3DB3E9" stroke-width="4"/>
<path d="M0 14.1654L8 6.2487C12.4318 1.8631 19.5682 1.8631 24 6.2487V6.2487C28.4318 10.6343 35.5682 10.6343 40 6.2487V6.2487C44.4318 1.8631 51.5682 1.8631 56 6.2487V6.2487C60.4318 10.6343 67.5682 10.6343 72 6.2487V6.2487C76.4318 1.8631 83.5682 1.8631 88 6.2487V6.2487C92.4318 10.6343 99.5682 10.6343 104 6.2487V6.2487C108.432 1.8631 115.568 1.8631 120 6.2487V6.2487C124.432 10.6343 131.568 10.6343 136 6.2487V6.2487C140.432 1.8631 147.568 1.8631 152 6.2487V6.2487C156.432 10.6343 163.568 10.6343 168 6.2487L176 -1.66797" stroke="#3DB3E9" stroke-width="4"/>
</g>
<mask id="mask4" mask-type="alpha" maskUnits="userSpaceOnUse" x="96" y="0" width="32" height="32">
<rect x="96" width="32" height="32" fill="#C4C4C4"/>
</mask>
<g mask="url(#mask4)">
<path d="M64 32.5013L72 24.5846C76.4318 20.199 83.5682 20.199 88 24.5846V24.5846C92.4318 28.9702 99.5682 28.9702 104 24.5846V24.5846C108.432 20.199 115.568 20.199 120 24.5846V24.5846C124.432 28.9702 131.568 28.9702 136 24.5846V24.5846C140.432 20.199 147.568 20.199 152 24.5846V24.5846C156.432 28.9702 163.568 28.9702 168 24.5846V24.5846C172.432 20.199 179.568 20.199 184 24.5846V24.5846C188.432 28.9702 195.568 28.9702 200 24.5846V24.5846C204.432 20.199 211.568 20.199 216 24.5846V24.5846C220.432 28.9702 227.568 28.9702 232 24.5846L240 16.668" stroke="#3DB3E9" stroke-width="4"/>
<path d="M64 23.3294L72 15.4128C76.4318 11.0272 83.5682 11.0272 88 15.4128V15.4128C92.4318 19.7984 99.5682 19.7984 104 15.4128V15.4128C108.432 11.0272 115.568 11.0272 120 15.4128V15.4128C124.432 19.7984 131.568 19.7984 136 15.4128V15.4128C140.432 11.0272 147.568 11.0272 152 15.4128V15.4128C156.432 19.7984 163.568 19.7984 168 15.4128V15.4128C172.432 11.0272 179.568 11.0272 184 15.4128V15.4128C188.432 19.7984 195.568 19.7984 200 15.4128V15.4128C204.432 11.0272 211.568 11.0272 216 15.4128V15.4128C220.432 19.7984 227.568 19.7984 232 15.4128L240 7.49609" stroke="#3DB3E9" stroke-width="4"/>
<path d="M64 14.1654L72 6.2487C76.4318 1.8631 83.5682 1.8631 88 6.2487V6.2487C92.4318 10.6343 99.5682 10.6343 104 6.2487V6.2487C108.432 1.8631 115.568 1.8631 120 6.2487V6.2487C124.432 10.6343 131.568 10.6343 136 6.2487V6.2487C140.432 1.8631 147.568 1.8631 152 6.2487V6.2487C156.432 10.6343 163.568 10.6343 168 6.2487V6.2487C172.432 1.8631 179.568 1.8631 184 6.2487V6.2487C188.432 10.6343 195.568 10.6343 200 6.2487V6.2487C204.432 1.8631 211.568 1.8631 216 6.2487V6.2487C220.432 10.6343 227.568 10.6343 232 6.2487L240 -1.66797" stroke="#3DB3E9" stroke-width="4"/>
</g>
</svg>
