<svg width="32" height="32" viewBox="0 0 32 32" fill="none" xmlns="http://www.w3.org/2000/svg">
<mask id="mask0" mask-type="alpha" maskUnits="userSpaceOnUse" x="0" y="0" width="32" height="32">
<rect width="32" height="32" fill="#C4C4C4"/>
</mask>
<g mask="url(#mask0)">
<path d="M-32 32.5013L-24 24.5846C-19.5682 20.199 -12.4318 20.199 -8 24.5846V24.5846C-3.56823 28.9702 3.56823 28.9702 8 24.5846V24.5846C12.4318 20.199 19.5682 20.199 24 24.5846V24.5846C28.4318 28.9702 35.5682 28.9702 40 24.5846V24.5846C44.4318 20.199 51.5682 20.199 56 24.5846V24.5846C60.4318 28.9702 67.5682 28.9702 72 24.5846V24.5846C76.4318 20.199 83.5682 20.199 88 24.5846V24.5846C92.4318 28.9702 99.5682 28.9702 104 24.5846V24.5846C108.432 20.199 115.568 20.199 120 24.5846V24.5846C124.432 28.9702 131.568 28.9702 136 24.5846L144 16.668" stroke="white" stroke-width="4"/>
<path d="M-32 23.3294L-24 15.4128C-19.5682 11.0272 -12.4318 11.0272 -8 15.4128V15.4128C-3.56823 19.7984 3.56823 19.7984 8 15.4128V15.4128C12.4318 11.0272 19.5682 11.0272 24 15.4128V15.4128C28.4318 19.7984 35.5682 19.7984 40 15.4128V15.4128C44.4318 11.0272 51.5682 11.0272 56 15.4128V15.4128C60.4318 19.7984 67.5682 19.7984 72 15.4128V15.4128C76.4318 11.0272 83.5682 11.0272 88 15.4128V15.4128C92.4318 19.7984 99.5682 19.7984 104 15.4128V15.4128C108.432 11.0272 115.568 11.0272 120 15.4128V15.4128C124.432 19.7984 131.568 19.7984 136 15.4128L144 7.49609" stroke="white" stroke-width="4"/>
<path d="M-32 14.1654L-24 6.2487C-19.5682 1.8631 -12.4318 1.8631 -8 6.2487V6.2487C-3.56823 10.6343 3.56823 10.6343 8 6.2487V6.2487C12.4318 1.8631 19.5682 1.8631 24 6.2487V6.2487C28.4318 10.6343 35.5682 10.6343 40 6.2487V6.2487C44.4318 1.8631 51.5682 1.8631 56 6.2487V6.2487C60.4318 10.6343 67.5682 10.6343 72 6.2487V6.2487C76.4318 1.8631 83.5682 1.8631 88 6.2487V6.2487C92.4318 10.6343 99.5682 10.6343 104 6.2487V6.2487C108.432 1.8631 115.568 1.8631 120 6.2487V6.2487C124.432 10.6343 131.568 10.6343 136 6.2487L144 -1.66797" stroke="white" stroke-width="4"/>
</g>
</svg>
