<svg width="32" height="24" viewBox="0 0 32 24" fill="none" xmlns="http://www.w3.org/2000/svg">
<mask id="mask0" mask-type="alpha" maskUnits="userSpaceOnUse" x="0" y="0" width="32" height="24">
<rect width="32" height="24" fill="#C4C4C4"/>
</mask>
<g mask="url(#mask0)">
<path d="M-32 25L-24 20.25C-19.0686 17.322 -12.9315 17.322 -8 20.25V20.25C-3.06855 23.178 3.06855 23.178 8 20.25V20.25C12.9315 17.322 19.0685 17.322 24 20.25V20.25C28.9315 23.178 35.0685 23.178 40 20.25V20.25C44.9315 17.322 51.0685 17.322 56 20.25V20.25C60.9315 23.178 67.0685 23.178 72 20.25V20.25C76.9315 17.322 83.0685 17.322 88 20.25V20.25C92.9315 23.178 99.0685 23.178 104 20.25V20.25C108.931 17.322 115.069 17.322 120 20.25V20.25C124.931 23.178 131.069 23.178 136 20.25L144 15.5" stroke="white" stroke-width="2"/>
<path d="M-32 19.5L-24 14.75C-19.0686 11.822 -12.9315 11.822 -8 14.75V14.75C-3.06855 17.678 3.06855 17.678 8 14.75V14.75C12.9315 11.822 19.0685 11.822 24 14.75V14.75C28.9315 17.678 35.0685 17.678 40 14.75V14.75C44.9315 11.822 51.0685 11.822 56 14.75V14.75C60.9315 17.678 67.0685 17.678 72 14.75V14.75C76.9315 11.822 83.0685 11.822 88 14.75V14.75C92.9315 17.678 99.0685 17.678 104 14.75V14.75C108.931 11.822 115.069 11.822 120 14.75V14.75C124.931 17.678 131.069 17.678 136 14.75L144 10" stroke="white" stroke-width="2"/>
<path d="M-32 14L-24 9.25C-19.0686 6.32195 -12.9315 6.32195 -8 9.25V9.25C-3.06855 12.178 3.06855 12.178 8 9.25V9.25C12.9315 6.32195 19.0685 6.32195 24 9.25V9.25C28.9315 12.178 35.0685 12.178 40 9.25V9.25C44.9315 6.32195 51.0685 6.32195 56 9.25V9.25C60.9315 12.178 67.0685 12.178 72 9.25V9.25C76.9315 6.32195 83.0685 6.32195 88 9.25V9.25C92.9315 12.178 99.0685 12.178 104 9.25V9.25C108.931 6.32195 115.069 6.32195 120 9.25V9.25C124.931 12.178 131.069 12.178 136 9.25L144 4.5" stroke="white" stroke-width="2"/>
<path d="M-32 8.5L-24 3.75C-19.0686 0.821952 -12.9315 0.821951 -8 3.75V3.75C-3.06855 6.67805 3.06855 6.67805 8 3.75V3.75C12.9315 0.821951 19.0685 0.821951 24 3.75V3.75C28.9315 6.67805 35.0685 6.67805 40 3.75V3.75C44.9315 0.821951 51.0685 0.821951 56 3.75V3.75C60.9315 6.67805 67.0685 6.67805 72 3.75V3.75C76.9315 0.821951 83.0685 0.821951 88 3.75V3.75C92.9315 6.67805 99.0685 6.67805 104 3.75V3.75C108.931 0.821951 115.069 0.821951 120 3.75V3.75C124.931 6.67805 131.069 6.67805 136 3.75L144 -1" stroke="white" stroke-width="2"/>
</g>
</svg>
